# xmcd
#
# Track frame offsets: 
#        150
#        14221
#        25666
#        37062
#        54278
#        64086
#        79971
#        92112
#        112732
#        116775
#        121738
#        126506
#        131281
#        138107
#        147566
#        152045
#        163106
#        164558
#        165363
#        178096
#        193114
#        206506
#        219595
#        232677
#        244923
#        256911
#        268843
#        275171
#        286320
#        300861
#        315670
#        338281
#
# Disc length: 4762 seconds
#
# Revision: 0
# Processed by: cddbd v1.5.2PL0 Copyright (c) Steve Scherf et al.
# Submitted via: ExactAudioCopy v0.95b3
#
DISCID=cc129820
DTITLE=The Monkees - The Monkees Complete 18 of 28 
DYEAR=1900
DGENRE=
TTITLE0=Can You Dig It? (film version)
TTITLE1=Circle Sky (alt. mix)
TTITLE2=Circle Sky (live 5\\12\\68)
TTITLE3=Circle Sky (live 5\\12\\68 synch-ups)
TTITLE4=Daddy's Song (alt. mix)
TTITLE5=Daddy's Song (extended version)
TTITLE6=Daddy's Song (film version)
TTITLE7=Ditty Diego Rehearsals
TTITLE8=Ditty Diego - War Chant (film version)
TTITLE9=Happy Birthday To You
TTITLE10=Head Radio Spot #1
TTITLE11=Head Radio Spot #2
TTITLE12=Head Theatrical Trailer #1
TTITLE13=Head Theatrical Trailer #2
TTITLE14=Head TV Spot #1
TTITLE15=Head TV Spot #2
TTITLE16=Head TV Spot #3
TTITLE17=Head TV Spot #4
TTITLE18=If I Ever Get To Saginaw Again
TTITLE19=If I Ever Get To Saginaw Again (alt. version)
TTITLE20=Long Title: Do I Have To Do This All Over Again? (alt. versio
TTITLE20=n 1 - no skips)
TTITLE21=Long Title: Do I Have To Do This All Over Again? (alt. versio
TTITLE21=n 1 - skips)
TTITLE22=Long Title: Do I Have To Do This All Over Again? (alt. versio
TTITLE22=n 2)
TTITLE23=Long Title: Do I Have To Do This All Over Again? (alt. versio
TTITLE23=n 3)
TTITLE24=Long Title: Do I Have To Do This All Over Again? (alt. versio
TTITLE24=n 4)
TTITLE25=Long Title: Do I Have To Do This All Over Again? (film versio
TTITLE25=n)
TTITLE26=Monkees Theme (Head mix)
TTITLE27=My Community
TTITLE28=Porpoise Song (Carole King demo)
TTITLE29=Porpoise Song (alt. mix)
TTITLE30=Porpoise Song (alt. version)
TTITLE31=Porpoise Song (single mix)
EXTD=
EXTT0=
EXTT1=
EXTT2=
EXTT3=
EXTT4=
EXTT5=
EXTT6=
EXTT7=
EXTT8=
EXTT9=
EXTT10=
EXTT11=
EXTT12=
EXTT13=
EXTT14=
EXTT15=
EXTT16=
EXTT17=
EXTT18=
EXTT19=
EXTT20=
EXTT21=
EXTT22=
EXTT23=
EXTT24=
EXTT25=
EXTT26=
EXTT27=
EXTT28=
EXTT29=
EXTT30=
EXTT31=
PLAYORDER=
